# xmcd
#
# Track frame offsets: 
#        150
#        14914
#        34518
#        47319
#        65873
#        91322
#        104465
#        120243
#        137418
#        159532
#        176599
#        190565
#
# Disc length: 2777 seconds
#
# Revision: 0
# Processed by: cddbd v1.5.2PL0 Copyright (c) Steve Scherf et al.
# Submitted via: ExactAudioCopy v1.0b4
#
DISCID=950ad70c
DTITLE=Left Lane Cruiser - Junkyard Speed Ball
DYEAR=2011
DGENRE=Blues Rock
TTITLE0=Lost My Mind
TTITLE1=Giving Tree
TTITLE2=Circus
TTITLE3=Shine
TTITLE4=Hip-Hop
TTITLE5=24 Hr
TTITLE6=Weed Vodka
TTITLE7=Cracker Barrel
TTITLE8=Pig Farm
TTITLE9=Represent
TTITLE10=Road Again
TTITLE11=At the Denny's
EXTD=
EXTT0=
EXTT1=
EXTT2=
EXTT3=
EXTT4=
EXTT5=
EXTT6=
EXTT7=
EXTT8=
EXTT9=
EXTT10=
EXTT11=
PLAYORDER=
